<svg id="Capa_1" data-name="Capa 1" xmlns="http://www.w3.org/2000/svg" viewBox="0 0 500 500"><defs><style>.cls-1{fill:#2fc58b;}</style></defs><path class="cls-1" d="M102.79,212a153.13,153.13,0,0,0,0,76H156.9a380,380,0,0,1,0-76Zm15.54-38H162.9c5.06-23.12,12.35-43.83,21.3-61.07A152.78,152.78,0,0,0,118.33,174Zm278.88,38H343.1a380,380,0,0,1,0,76h54.11A152.82,152.82,0,0,0,397.21,212Zm-15.54-38a152.78,152.78,0,0,0-65.87-61.07c9,17.24,16.24,37.95,21.3,61.07ZM195.13,212A339.76,339.76,0,0,0,193,250a333.14,333.14,0,0,0,2.13,38H304.87a337.67,337.67,0,0,0,0-76Zm6.8-38h96.14a204.6,204.6,0,0,0-14.88-41.36C271.26,108.79,258.49,98,250,98s-21.26,10.79-33.19,34.64A204.78,204.78,0,0,0,201.93,174Zm-83.6,152a152.78,152.78,0,0,0,65.87,61.07c-9-17.24-16.24-37.95-21.3-61.07Zm263.34,0H337.1c-5.06,23.12-12.35,43.83-21.3,61.07A152.78,152.78,0,0,0,381.67,326Zm-179.74,0a204.78,204.78,0,0,0,14.88,41.36C228.74,391.21,241.51,402,250,402s21.26-10.79,33.19-34.64A204.78,204.78,0,0,0,298.07,326ZM250,440C145.06,440,60,354.94,60,250S145.06,60,250,60s190,85.06,190,190S354.94,440,250,440Z"/></svg>