<svg id="Capa_1" data-name="Capa 1" xmlns="http://www.w3.org/2000/svg" viewBox="0 0 500 500"><defs><style>.cls-1{fill:#2fc58b;}</style></defs><path id="Vector-17" class="cls-1" d="M250,319.39a67.86,67.86,0,0,1-48.34-20.32,70.15,70.15,0,0,1,0-98.14,67.67,67.67,0,0,1,96.69,0,70.15,70.15,0,0,1,0,98.14A67.89,67.89,0,0,1,250,319.39Zm145.13-50.16A156.52,156.52,0,0,0,396.54,250a172.43,172.43,0,0,0-1.37-19.83l41.22-32.31a10.1,10.1,0,0,0,2.34-12.69l-39.06-68.6a9.54,9.54,0,0,0-11.92-4.36L339.11,132c-10.15-7.73-20.7-14.47-33-19.42l-7.22-52.54a10.06,10.06,0,0,0-3.39-6,9.78,9.78,0,0,0-6.38-2.35H211a9.92,9.92,0,0,0-9.77,8.33L194,112.61c-12.3,5-22.85,11.69-33,19.42l-48.63-19.82a9.53,9.53,0,0,0-11.92,4.36l-39.07,68.6a9.88,9.88,0,0,0,2.35,12.69l41.21,32.31A172.39,172.39,0,0,0,103.55,250a156.53,156.53,0,0,0,1.36,19.23L63.7,302.14a9.88,9.88,0,0,0-2.35,12.69l39.07,68.6a9.75,9.75,0,0,0,11.92,4.36l48.63-20c10.16,7.93,20.71,14.67,33,19.63l7.23,52.53a9.92,9.92,0,0,0,9.77,8.33h78.13a9.93,9.93,0,0,0,9.77-8.33l7.22-52.53a141.73,141.73,0,0,0,33-19.63l48.64,20a9.75,9.75,0,0,0,11.92-4.36l39.06-68.6a10.1,10.1,0,0,0-2.34-12.69Z"/></svg>