<svg id="Capa_1" data-name="Capa 1" xmlns="http://www.w3.org/2000/svg" xmlns:xlink="http://www.w3.org/1999/xlink" viewBox="0 0 1080 1080"><defs><style>.cls-1{fill:none;}.cls-2{fill:url(#Degradado_sin_nombre_774);}.cls-3{fill:#378243;}.cls-4{fill:url(#Degradado_sin_nombre_377);}.cls-5{fill:url(#Degradado_sin_nombre_533);}.cls-6{fill:url(#Degradado_sin_nombre_794);}.cls-7{fill:url(#Degradado_sin_nombre_380);}.cls-8{fill:url(#Degradado_sin_nombre_768);}.cls-9{fill:url(#Degradado_sin_nombre_385);}.cls-10{fill:url(#Degradado_sin_nombre_24);}.cls-11{fill:url(#Degradado_sin_nombre_526);}.cls-12{fill:url(#Degradado_sin_nombre_546);}.cls-13{fill:url(#Degradado_sin_nombre_798);}.cls-14{fill:#a88455;}.cls-15{fill:url(#Degradado_sin_nombre_166);}.cls-16{fill:url(#Degradado_sin_nombre_533-2);}.cls-17{fill:url(#Degradado_sin_nombre_166-2);}.cls-18{fill:#4f506f;}.cls-19{fill:url(#Degradado_sin_nombre_815);}.cls-20{fill:url(#Degradado_sin_nombre_804);}.cls-21{fill:url(#Degradado_sin_nombre_166-3);}.cls-22{fill:url(#Degradado_sin_nombre_185);}.cls-23{fill:url(#Degradado_sin_nombre_280);}.cls-24{fill:url(#Degradado_sin_nombre_169);}.cls-25{fill:url(#Degradado_sin_nombre_55);}.cls-26{fill:url(#Degradado_sin_nombre_62);}.cls-27{fill:#43abc1;}.cls-28{fill:url(#Degradado_sin_nombre_52);}.cls-29{fill:url(#Degradado_sin_nombre_4);}.cls-30{fill:url(#Degradado_sin_nombre_343);}.cls-31{fill:url(#Degradado_sin_nombre_337);}.cls-32{fill:url(#Degradado_sin_nombre_298);}.cls-33{fill:url(#Degradado_sin_nombre_317);}.cls-34{fill:url(#Degradado_sin_nombre_308);}.cls-35{fill:url(#Degradado_sin_nombre_210);}.cls-36{fill:url(#Degradado_sin_nombre_183);}.cls-37{fill:url(#Degradado_sin_nombre_211);}.cls-38{fill:url(#Degradado_sin_nombre_212);}.cls-39{fill:url(#Degradado_sin_nombre_151);}.cls-40{fill:url(#Degradado_sin_nombre_112);}.cls-41{fill:url(#Degradado_sin_nombre_102);}.cls-42{fill:url(#Degradado_sin_nombre_92);}.cls-43{fill:#324c63;}.cls-44{fill:url(#Degradado_sin_nombre_68);}.cls-45{fill:url(#Degradado_sin_nombre_74);}.cls-46{fill:url(#Degradado_sin_nombre_63);}.cls-47{fill:url(#Degradado_sin_nombre_44);}.cls-48{fill:url(#Degradado_sin_nombre_73);}.cls-49{fill:url(#Degradado_sin_nombre_77);}.cls-50{fill:url(#Degradado_sin_nombre_65);}.cls-51{fill:url(#Degradado_sin_nombre_70);}.cls-52{fill:url(#Degradado_sin_nombre_156);}.cls-53{fill:url(#Degradado_sin_nombre_20);}.cls-54{fill:url(#Degradado_sin_nombre_20-2);}.cls-55{fill:url(#Degradado_sin_nombre_3);}.cls-56{fill:#1f2146;}</style><linearGradient id="Degradado_sin_nombre_774" x1="824.13" y1="455.73" x2="801.19" y2="597.74" gradientUnits="userSpaceOnUse"><stop offset="0.02" stop-color="#bfca86"/><stop offset="0.22" stop-color="#a8bc8f"/><stop offset="0.53" stop-color="#8ba99c"/><stop offset="0.8" stop-color="#789ea3"/><stop offset="0.99" stop-color="#729aa6"/></linearGradient><linearGradient id="Degradado_sin_nombre_377" x1="807.72" y1="408.39" x2="933.07" y2="235.53" gradientUnits="userSpaceOnUse"><stop offset="0" stop-color="#ecc87c"/><stop offset="0.65" stop-color="#9ba58c"/><stop offset="0.92" stop-color="#6f4b33"/></linearGradient><linearGradient id="Degradado_sin_nombre_533" x1="511.59" y1="953.15" x2="556.38" y2="825.35" gradientUnits="userSpaceOnUse"><stop offset="0" stop-color="#e2bc71"/><stop offset="0.28" stop-color="#dab167"/><stop offset="0.76" stop-color="#c3944e"/><stop offset="0.99" stop-color="#b6843f"/></linearGradient><linearGradient id="Degradado_sin_nombre_794" x1="677.02" y1="725.88" x2="772.06" y2="532.54" gradientUnits="userSpaceOnUse"><stop offset="0.05" stop-color="#2a2c53"/><stop offset="0.16" stop-color="#35446f"/><stop offset="0.29" stop-color="#405a88"/><stop offset="0.4" stop-color="#466797"/><stop offset="0.5" stop-color="#486c9c"/><stop offset="0.77" stop-color="#416889"/><stop offset="0.98" stop-color="#507667"/></linearGradient><linearGradient id="Degradado_sin_nombre_380" x1="902.18" y1="213.51" x2="980.42" y2="176.64" gradientUnits="userSpaceOnUse"><stop offset="0.56" stop-color="#6e5765"/><stop offset="0.84" stop-color="#67555b"/><stop offset="1" stop-color="#625453"/></linearGradient><radialGradient id="Degradado_sin_nombre_768" cx="730.07" cy="177.89" r="132.43" gradientUnits="userSpaceOnUse"><stop offset="0.28" stop-color="#62d5c0"/><stop offset="0.28" stop-color="#62d4c0"/><stop offset="0.62" stop-color="#54949b"/><stop offset="0.86" stop-color="#4b6c85"/><stop offset="0.99" stop-color="#485d7c"/></radialGradient><linearGradient id="Degradado_sin_nombre_385" x1="863.54" y1="215.22" x2="969.22" y2="173.03" gradientUnits="userSpaceOnUse"><stop offset="0.09" stop-color="#97857b"/><stop offset="0.4" stop-color="#99877d"/><stop offset="0.56" stop-color="#a18f84"/><stop offset="0.69" stop-color="#ae9c90"/><stop offset="0.8" stop-color="#c0afa2"/><stop offset="0.9" stop-color="#d8c8b8"/><stop offset="0.98" stop-color="#f5e6d3"/><stop offset="1" stop-color="#fbecd9"/></linearGradient><linearGradient id="Degradado_sin_nombre_24" x1="711.28" y1="219.85" x2="634.27" y2="318.98" gradientUnits="userSpaceOnUse"><stop offset="0" stop-color="#313d71"/><stop offset="0.13" stop-color="#3b527d"/><stop offset="0.37" stop-color="#4c7491"/><stop offset="0.61" stop-color="#588d9f"/><stop offset="0.82" stop-color="#5f9ca7"/><stop offset="0.99" stop-color="#62a1aa"/></linearGradient><radialGradient id="Degradado_sin_nombre_526" cx="806.53" cy="118.22" r="158.84" gradientUnits="userSpaceOnUse"><stop offset="0.01" stop-color="#cceae8"/><stop offset="0.16" stop-color="#c9e9e7"/><stop offset="0.25" stop-color="#c1e7e4"/><stop offset="0.33" stop-color="#b2e4de"/><stop offset="0.41" stop-color="#9ddfd6"/><stop offset="0.47" stop-color="#81d8cc"/><stop offset="0.54" stop-color="#60d1bf"/><stop offset="0.55" stop-color="#5acfbd"/></radialGradient><linearGradient id="Degradado_sin_nombre_546" x1="795.57" y1="299.93" x2="814.14" y2="368.74" gradientUnits="userSpaceOnUse"><stop offset="0.04" stop-color="#d1a75f"/><stop offset="0.56" stop-color="#ecc87c"/><stop offset="0.71" stop-color="#eac57a"/><stop offset="0.8" stop-color="#e3bd72"/><stop offset="0.88" stop-color="#d7af65"/><stop offset="0.94" stop-color="#c79b53"/><stop offset="1" stop-color="#b2823d"/></linearGradient><linearGradient id="Degradado_sin_nombre_798" x1="788.62" y1="467.45" x2="840.32" y2="212.47" gradientUnits="userSpaceOnUse"><stop offset="0" stop-color="#d8aa5c"/><stop offset="0.1" stop-color="#be955e"/><stop offset="0.28" stop-color="#937462"/><stop offset="0.43" stop-color="#785f64"/><stop offset="0.51" stop-color="#6e5765"/><stop offset="0.72" stop-color="#6e5663"/><stop offset="0.82" stop-color="#6e555b"/><stop offset="0.9" stop-color="#6e514e"/><stop offset="0.96" stop-color="#6e4d3c"/><stop offset="0.99" stop-color="#6e4a32"/></linearGradient><linearGradient id="Degradado_sin_nombre_166" x1="711.15" y1="438.12" x2="735.18" y2="373.67" gradientUnits="userSpaceOnUse"><stop offset="0" stop-color="#ecc87c"/><stop offset="1" stop-color="#b2823d"/></linearGradient><linearGradient id="Degradado_sin_nombre_533-2" x1="748.94" y1="432.38" x2="710.44" y2="489.73" xlink:href="#Degradado_sin_nombre_533"/><linearGradient id="Degradado_sin_nombre_166-2" x1="718.28" y1="464.53" x2="807.22" y2="464.53" xlink:href="#Degradado_sin_nombre_166"/><linearGradient id="Degradado_sin_nombre_815" x1="643.29" y1="653.01" x2="691.9" y2="550.88" gradientUnits="userSpaceOnUse"><stop offset="0.1" stop-color="#404565"/><stop offset="0.66" stop-color="#496068"/><stop offset="1" stop-color="#8a7055"/></linearGradient><linearGradient id="Degradado_sin_nombre_804" x1="692.27" y1="519.25" x2="606.52" y2="654.7" gradientUnits="userSpaceOnUse"><stop offset="0" stop-color="#cba566"/><stop offset="1" stop-color="#587a83"/></linearGradient><linearGradient id="Degradado_sin_nombre_166-3" x1="666.79" y1="275.73" x2="715.95" y2="317.78" xlink:href="#Degradado_sin_nombre_166"/><linearGradient id="Degradado_sin_nombre_185" x1="680.7" y1="364.49" x2="648.47" y2="312.06" gradientUnits="userSpaceOnUse"><stop offset="0.6" stop-color="#cfd0ae"/><stop offset="0.96" stop-color="#9ba57a"/></linearGradient><linearGradient id="Degradado_sin_nombre_280" x1="704.88" y1="316.83" x2="806.46" y2="215.24" gradientUnits="userSpaceOnUse"><stop offset="0.43" stop-color="#ecc87c"/><stop offset="0.56" stop-color="#f8cd73"/><stop offset="0.71" stop-color="#ffd16d"/><stop offset="0.85" stop-color="#daab56"/><stop offset="1" stop-color="#b2823d"/></linearGradient><linearGradient id="Degradado_sin_nombre_169" x1="742.74" y1="341.91" x2="666.27" y2="406.9" gradientUnits="userSpaceOnUse"><stop offset="0" stop-color="#ecc87c"/><stop offset="1" stop-color="#9ba58c"/></linearGradient><linearGradient id="Degradado_sin_nombre_55" x1="529.71" y1="641.78" x2="489.13" y2="623.74" gradientUnits="userSpaceOnUse"><stop offset="0" stop-color="#bae4e2"/><stop offset="1" stop-color="#7ec2cd"/></linearGradient><linearGradient id="Degradado_sin_nombre_62" x1="527.87" y1="597.06" x2="612.97" y2="527.74" gradientUnits="userSpaceOnUse"><stop offset="0" stop-color="#53bec8"/><stop offset="1" stop-color="#2a3e63"/></linearGradient><linearGradient id="Degradado_sin_nombre_52" x1="509.39" y1="649.09" x2="467.13" y2="760.11" gradientUnits="userSpaceOnUse"><stop offset="0" stop-color="#82c8ea"/><stop offset="1" stop-color="#314578"/></linearGradient><linearGradient id="Degradado_sin_nombre_4" x1="501.69" y1="835.25" x2="508.08" y2="675.95" gradientUnits="userSpaceOnUse"><stop offset="0" stop-color="#2c2a52"/><stop offset="1" stop-color="#4680ae"/></linearGradient><linearGradient id="Degradado_sin_nombre_343" x1="663.34" y1="435.02" x2="434.16" y2="267.08" gradientUnits="userSpaceOnUse"><stop offset="0.04" stop-color="#54ac94"/><stop offset="0.15" stop-color="#83c4b0"/><stop offset="0.27" stop-color="#afdbcb"/><stop offset="0.38" stop-color="#cfebde"/><stop offset="0.48" stop-color="#e2f5ea"/><stop offset="0.54" stop-color="#e9f9ee"/><stop offset="0.62" stop-color="#e2f5e6"/><stop offset="0.74" stop-color="#cdecd1"/><stop offset="0.89" stop-color="#addcaf"/><stop offset="1" stop-color="#92cf94"/></linearGradient><linearGradient id="Degradado_sin_nombre_337" x1="647.68" y1="461.59" x2="379.43" y2="257.96" gradientUnits="userSpaceOnUse"><stop offset="0.04" stop-color="#487ba6"/><stop offset="0.54" stop-color="#85c4d3"/><stop offset="0.62" stop-color="#75b2bd"/><stop offset="0.79" stop-color="#578e91"/><stop offset="0.92" stop-color="#447776"/><stop offset="1" stop-color="#3d6f6c"/></linearGradient><linearGradient id="Degradado_sin_nombre_298" x1="569.31" y1="472.55" x2="677.13" y2="497.72" gradientUnits="userSpaceOnUse"><stop offset="0" stop-color="#32456d"/><stop offset="0.28" stop-color="#2e3c59"/><stop offset="0.47" stop-color="#2c3852"/><stop offset="1" stop-color="#2f3c4f"/></linearGradient><linearGradient id="Degradado_sin_nombre_317" x1="395.16" y1="281.14" x2="542.07" y2="461.86" gradientUnits="userSpaceOnUse"><stop offset="0.01" stop-color="#3a4c7a"/><stop offset="0.06" stop-color="#3c5481"/><stop offset="0.22" stop-color="#436996"/><stop offset="0.38" stop-color="#4777a2"/><stop offset="0.52" stop-color="#487ba6"/><stop offset="0.64" stop-color="#426d98"/><stop offset="0.86" stop-color="#344873"/><stop offset="1" stop-color="#292e58"/></linearGradient><linearGradient id="Degradado_sin_nombre_308" x1="546.25" y1="460.23" x2="575.55" y2="459.85" gradientUnits="userSpaceOnUse"><stop offset="0" stop-color="#4e90c0"/><stop offset="0.29" stop-color="#4a86b4"/><stop offset="0.8" stop-color="#416c96"/><stop offset="0.99" stop-color="#3d6088"/></linearGradient><linearGradient id="Degradado_sin_nombre_210" x1="395.88" y1="273.6" x2="1.12" y2="50.93" gradientUnits="userSpaceOnUse"><stop offset="0.09" stop-color="#ac9d64"/><stop offset="0.13" stop-color="#90a17a"/><stop offset="0.21" stop-color="#6aa797"/><stop offset="0.27" stop-color="#53aba8"/><stop offset="0.3" stop-color="#4aacaf"/><stop offset="0.34" stop-color="#6cc1c0"/><stop offset="0.39" stop-color="#87d2ce"/><stop offset="0.43" stop-color="#9bded8"/><stop offset="0.48" stop-color="#a7e6de"/><stop offset="0.53" stop-color="#abe8e0"/><stop offset="0.59" stop-color="#91d8d3"/><stop offset="0.73" stop-color="#5eb8b9"/><stop offset="0.79" stop-color="#4aacaf"/><stop offset="0.94" stop-color="#56adaa"/><stop offset="0.99" stop-color="#5caea8"/></linearGradient><linearGradient id="Degradado_sin_nombre_183" x1="365.53" y1="287.63" x2="48.81" y2="108.98" gradientUnits="userSpaceOnUse"><stop offset="0.01" stop-color="#385469"/><stop offset="0.06" stop-color="#3b6475"/><stop offset="0.19" stop-color="#41818d"/><stop offset="0.31" stop-color="#46979e"/><stop offset="0.44" stop-color="#48a4a9"/><stop offset="0.55" stop-color="#49a8ac"/><stop offset="0.69" stop-color="#49a5aa"/><stop offset="0.78" stop-color="#479ca4"/><stop offset="0.86" stop-color="#458d99"/><stop offset="0.93" stop-color="#42778b"/><stop offset="1" stop-color="#3f5d79"/></linearGradient><linearGradient id="Degradado_sin_nombre_211" x1="427.39" y1="372.9" x2="99.02" y2="251.17" gradientUnits="userSpaceOnUse"><stop offset="0.01" stop-color="#56506c"/><stop offset="0.11" stop-color="#5e5f79"/><stop offset="0.31" stop-color="#73869c"/><stop offset="0.5" stop-color="#89b0c1"/><stop offset="0.64" stop-color="#8aafbe"/><stop offset="0.73" stop-color="#8cacb5"/><stop offset="0.81" stop-color="#91a7a6"/><stop offset="0.89" stop-color="#979f90"/><stop offset="0.96" stop-color="#9e9574"/><stop offset="1" stop-color="#a48e5f"/></linearGradient><linearGradient id="Degradado_sin_nombre_212" x1="442.93" y1="393.05" x2="115.69" y2="292.74" gradientUnits="userSpaceOnUse"><stop offset="0" stop-color="#35446b"/><stop offset="0.13" stop-color="#3c507a"/><stop offset="0.38" stop-color="#4d6ea1"/><stop offset="0.49" stop-color="#567db4"/><stop offset="0.63" stop-color="#66738e"/><stop offset="0.79" stop-color="#756b6b"/><stop offset="0.92" stop-color="#7f6556"/><stop offset="1" stop-color="#82634e"/></linearGradient><linearGradient id="Degradado_sin_nombre_151" x1="485.46" y1="416.71" x2="155.18" y2="406.5" gradientUnits="userSpaceOnUse"><stop offset="0" stop-color="#38606a"/><stop offset="0.11" stop-color="#3b646d"/><stop offset="0.23" stop-color="#447177"/><stop offset="0.35" stop-color="#528588"/><stop offset="0.47" stop-color="#67a29f"/><stop offset="0.59" stop-color="#81c8bc"/><stop offset="0.69" stop-color="#9becd9"/><stop offset="0.87" stop-color="#69bdac"/><stop offset="1" stop-color="#4aa191"/></linearGradient><linearGradient id="Degradado_sin_nombre_112" x1="454.05" y1="433.96" x2="253.44" y2="427.75" gradientUnits="userSpaceOnUse"><stop offset="0.01" stop-color="#3d586b"/><stop offset="0.12" stop-color="#466f86"/><stop offset="0.26" stop-color="#5089a5"/><stop offset="0.38" stop-color="#5699b8"/><stop offset="0.47" stop-color="#589fbf"/><stop offset="0.65" stop-color="#4b7fa0"/><stop offset="0.89" stop-color="#385074"/></linearGradient><linearGradient id="Degradado_sin_nombre_102" x1="353.09" y1="539.02" x2="485.25" y2="432.39" gradientUnits="userSpaceOnUse"><stop offset="0.01" stop-color="#3a4c7a"/><stop offset="0.11" stop-color="#3d5784"/><stop offset="0.47" stop-color="#487ba6"/><stop offset="0.82" stop-color="#32446e"/><stop offset="1" stop-color="#292e58"/></linearGradient><linearGradient id="Degradado_sin_nombre_92" x1="503.58" y1="456.23" x2="372.08" y2="524.23" gradientUnits="userSpaceOnUse"><stop offset="0.01" stop-color="#2b3559"/><stop offset="0.44" stop-color="#395f8c"/><stop offset="1" stop-color="#293155"/></linearGradient><linearGradient id="Degradado_sin_nombre_68" x1="590.56" y1="495.71" x2="535.9" y2="536.29" gradientUnits="userSpaceOnUse"><stop offset="0" stop-color="#26284f"/><stop offset="1" stop-color="#2d376c"/></linearGradient><linearGradient id="Degradado_sin_nombre_74" x1="484.87" y1="566.74" x2="534.46" y2="526.73" gradientUnits="userSpaceOnUse"><stop offset="0.01" stop-color="#355a74"/><stop offset="1" stop-color="#273750"/></linearGradient><linearGradient id="Degradado_sin_nombre_63" x1="573.29" y1="852.7" x2="619.58" y2="1031.29" gradientUnits="userSpaceOnUse"><stop offset="0.01" stop-color="#6c4b42"/><stop offset="0.13" stop-color="#85644e"/><stop offset="0.4" stop-color="#c6a46b"/><stop offset="0.5" stop-color="#e0bd77"/><stop offset="0.69" stop-color="#f7e29b"/><stop offset="0.69" stop-color="#f6e19a"/><stop offset="0.86" stop-color="#e8c67c"/><stop offset="0.96" stop-color="#e2bc71"/></linearGradient><linearGradient id="Degradado_sin_nombre_44" x1="583.77" y1="1056.25" x2="498.57" y2="767.87" gradientUnits="userSpaceOnUse"><stop offset="0.06" stop-color="#cfa35d"/><stop offset="0.24" stop-color="#f9e59e"/><stop offset="0.29" stop-color="#e7c982"/><stop offset="0.34" stop-color="#dbb770"/><stop offset="0.38" stop-color="#d7b06a"/><stop offset="0.41" stop-color="#c6a269"/><stop offset="0.53" stop-color="#977967"/><stop offset="0.61" stop-color="#796066"/><stop offset="0.66" stop-color="#6e5765"/></linearGradient><linearGradient id="Degradado_sin_nombre_73" x1="596.48" y1="822.95" x2="721.01" y2="939.28" gradientUnits="userSpaceOnUse"><stop offset="0" stop-color="#3c4f6f"/><stop offset="0.1" stop-color="#3e5371"/><stop offset="0.22" stop-color="#436075"/><stop offset="0.33" stop-color="#4c767d"/><stop offset="0.45" stop-color="#599488"/><stop offset="0.47" stop-color="#5b998a"/><stop offset="0.71" stop-color="#46b89e"/><stop offset="1" stop-color="#5b998a"/></linearGradient><linearGradient id="Degradado_sin_nombre_77" x1="611.91" y1="781.18" x2="751.18" y2="935.2" gradientUnits="userSpaceOnUse"><stop offset="0" stop-color="#3c4f6f"/><stop offset="0.15" stop-color="#3c536f"/><stop offset="0.31" stop-color="#3d606e"/><stop offset="0.47" stop-color="#3f746c"/><stop offset="0.71" stop-color="#bee4cb"/><stop offset="1" stop-color="#5b998a"/></linearGradient><linearGradient id="Degradado_sin_nombre_65" x1="599.05" y1="855.55" x2="687.53" y2="1014.49" gradientUnits="userSpaceOnUse"><stop offset="0.05" stop-color="#2a2c53"/><stop offset="0.16" stop-color="#35446f"/><stop offset="0.29" stop-color="#405a88"/><stop offset="0.4" stop-color="#466797"/><stop offset="0.5" stop-color="#486c9c"/><stop offset="0.77" stop-color="#416889"/><stop offset="0.98" stop-color="#55547c"/></linearGradient><radialGradient id="Degradado_sin_nombre_70" cx="774.71" cy="232.47" r="22.12" gradientUnits="userSpaceOnUse"><stop offset="0.73" stop-color="#272c54"/><stop offset="0.77" stop-color="#2e4e68"/><stop offset="0.81" stop-color="#336877"/><stop offset="0.86" stop-color="#377b82"/><stop offset="0.9" stop-color="#398689"/><stop offset="0.94" stop-color="#3a8a8b"/></radialGradient><radialGradient id="Degradado_sin_nombre_156" cx="787" cy="211.41" r="27.09" gradientUnits="userSpaceOnUse"><stop offset="0.3" stop-color="#fff"/><stop offset="0.34" stop-color="#fff" stop-opacity="0.93"/><stop offset="0.53" stop-color="#fff" stop-opacity="0.6"/><stop offset="0.69" stop-color="#fff" stop-opacity="0.34"/><stop offset="0.83" stop-color="#fff" stop-opacity="0.16"/><stop offset="0.93" stop-color="#fff" stop-opacity="0.04"/><stop offset="0.99" stop-color="#fff" stop-opacity="0"/></radialGradient><linearGradient id="Degradado_sin_nombre_20" x1="666.38" y1="221.4" x2="718.27" y2="304.42" gradientUnits="userSpaceOnUse"><stop offset="0.01" stop-color="#5b998a"/><stop offset="0.05" stop-color="#599488"/><stop offset="0.3" stop-color="#4c767d"/><stop offset="0.54" stop-color="#436075"/><stop offset="0.78" stop-color="#3e5371"/><stop offset="1" stop-color="#3c4f6f"/></linearGradient><linearGradient id="Degradado_sin_nombre_20-2" x1="680.12" y1="196.75" x2="783.76" y2="197.16" xlink:href="#Degradado_sin_nombre_20"/><linearGradient id="Degradado_sin_nombre_3" x1="600.67" y1="749.54" x2="556.02" y2="836.38" gradientUnits="userSpaceOnUse"><stop offset="0" stop-color="#1d1d3f"/><stop offset="1" stop-color="#2b5063"/></linearGradient></defs><path class="cls-1" d="M803.67,515.13l0,.11Z"/><path class="cls-1" d="M806.15,505.71l-1.43,5.42Z"/><path class="cls-1" d="M803.09,517.31l-.19.73Z"/><path class="cls-1" d="M806.78,503.31h0l-.11.4Z"/><path class="cls-1" d="M808.51,417.51c0,.13,0,.41,0,.82C808.5,417.92,808.5,417.64,808.51,417.51Z"/><path class="cls-1" d="M802.7,518.81l-.14.52Z"/><path class="cls-2" d="M808.51,502.21c1.67,23.57-.25,59.71-14.75,100.77a245,245,0,0,1-12.07,28.35c1.52-2.17,3-4.34,4.41-6.5,23.78-36.32,33.12-71.74,37.15-87A271.81,271.81,0,0,0,833.09,458c-.58-18.9-2.91-26.6-4.54-37.34l-19.8,75.22Q808.65,499,808.51,502.21Z"/><path class="cls-3" d="M806.67,508.63Z"/><path class="cls-3" d="M806.67,508.63Z"/><path class="cls-3" d="M806.67,508.63Z"/><path class="cls-4" d="M858.89,252.75a146.6,146.6,0,0,0-34.41,51.61,237.4,237.4,0,0,0-12.28,41.79c-5.23,26.64-4,44.88-3.69,77.41.16,17.42,1.22,42.33.24,72.29l19.8-75.22a147.61,147.61,0,0,1-1.61-20.41c-.66-40.84,10.45-72.34,17.21-90.94C856.24,276,868.61,252,881.94,234.07c.71-.95,1.43-1.9,2.14-2.82l5-2.4c-.59-.12-1.23-.23-1.93-.33C878.49,234.75,868.51,243.47,858.89,252.75Zm-50.4,165.58v0c0-.41,0-.69,0-.82C808.5,417.64,808.5,417.92,808.49,418.33Z"/><path class="cls-3" d="M802.56,519.33l-.07.26Z"/><path class="cls-3" d="M804.72,511.13l-1.05,4C804,513.89,804.36,512.51,804.72,511.13Z"/><path class="cls-3" d="M804.72,511.13l-1.05,4C804,513.89,804.36,512.51,804.72,511.13Z"/><path class="cls-3" d="M803.64,515.24l-.55,2.07Z"/><path class="cls-3" d="M803.64,515.24l-.55,2.07Z"/><path class="cls-5" d="M598,768.19a43.34,43.34,0,0,0-6.41,3.76c-41,28.22-62.67,67.59-62.67,67.59a265.67,265.67,0,0,0-20.89,49.15A226.91,226.91,0,0,0,503.13,928c-.41,11.54-.88,24.38,2.46,40.55,2.15,10.4,4.1,13.58,9.83,30.72.89,2.67,1.89,5.72,3,9.09l.11.13a464.29,464.29,0,0,1,2.4-72.64c4.07-35.81,13.49-78.33,34.47-114.15a248,248,0,0,1,36.87-47.93q2.63-2.53,5.2-4.84l1.11-1Z"/><path class="cls-6" d="M808.51,502.21q.13-3.22.24-6.36l-2,7.46-.63,2.4-1.43,5.42c-.36,1.38-.73,2.76-1.05,4l0,.11-.55,2.07-.19.73c-.08.3-.14.55-.2.77l-.14.52-.07.26a420.45,420.45,0,0,1-41.91,79.7,191.52,191.52,0,0,1-35,36.25,175.92,175.92,0,0,1-17.3,12.21,1075.35,1075.35,0,0,0-88.38,93.48q-11.39,13.57-21.86,27l.52-.23c1.12-1,2.23-2,3.33-2.88,18.31-15.41,35.35-23.46,56.72-35.53,39.71-22.42,65.13-37.78,90.93-61.44a225.27,225.27,0,0,0,32.17-36.78A245,245,0,0,0,793.76,603C808.26,561.92,810.18,525.78,808.51,502.21Z"/><path class="cls-7" d="M850,228.92c23.45-1.58,33.61-1.17,39.14-.07,58-27.57,119.73-56.77,177.45-84.24l-16.26,4.81Z"/><path class="cls-8" d="M872.41,206.78l-25.33,22.34c-11.57.82-26.16,2.1-44.72,4-22.61,2.27-41.56,4.47-55.3,6.14L707.74,258.9l-39.32,68.81-57,57.05-5-4.82-.5-.6a77.05,77.05,0,0,0,7.6-6.39,82.94,82.94,0,0,0,11.33-7.76,86.22,86.22,0,0,0,24-31.33,224.73,224.73,0,0,0,14.13-31.34c3.9-10.84,4.77-16,9.83-29.49,4.4-11.76,6.6-17.64,9.83-23.35,11.58-20.5,29.17-31.32,38.09-36.87A128.39,128.39,0,0,1,763,196.22c14.14-3.49,24.6-2.25,31.34-.61,14.64,3.55,17.47,10.37,35,14.13A78.85,78.85,0,0,0,855.21,211,76.12,76.12,0,0,0,872.41,206.78Z"/><polygon class="cls-3" points="847.08 229.12 847.09 229.12 847.09 229.12 847.08 229.12 847.08 229.12"/><polygon class="cls-3" points="847.08 229.12 847.09 229.12 847.09 229.12 847.08 229.12 847.08 229.12"/><polygon class="cls-3" points="845.38 230.63 847.09 229.12 847.08 229.12 845.38 230.63"/><polygon class="cls-3" points="845.38 230.63 847.09 229.12 847.08 229.12 845.38 230.63"/><path class="cls-9" d="M850,228.92l200.33-79.5L880.4,199.73l-33.31,29.39Z"/><path class="cls-10" d="M643.23,291.46c-8.71,27.63-7.93,39.82-14.75,59-3,8.48-9.77,16.86-15,22.5a82.33,82.33,0,0,0,11.33-7.76,86.18,86.18,0,0,0,24-31.33,224.2,224.2,0,0,0,14.13-31.34c3.9-10.84,4.76-16,9.83-29.49,4.4-11.76,6.6-17.64,9.83-23.35a89.38,89.38,0,0,1,18.62-22.78l-39,18.62A286.66,286.66,0,0,0,643.23,291.46Z"/><path class="cls-11" d="M879.78,199.91A110.83,110.83,0,0,1,855.21,195c-21.37-6.87-28.35-16.41-45.47-22.12-8.3-2.76-21.26-5.38-39.33-2.45l-78.64,4.91,27,11c6.46,1.51,12.07,2.47,16.65,3.09,14.05,1.93,23.71,1.55,42.29,4.6a59,59,0,0,1,16.7,1.55c14.65,3.55,17.47,10.37,35,14.13A78.56,78.56,0,0,0,855.21,211a76.66,76.66,0,0,0,17.2-4.19l8-7.05Z"/><path class="cls-1" d="M468.38,876.61c.06-.2.12-.4.17-.6l0,0C468.5,876.17,468.44,876.39,468.38,876.61Z"/><path class="cls-1" d="M678.86,466l-.24-.29-.26.63Z"/><path class="cls-3" d="M465.65,886.12v0C466.26,884.06,466.31,883.87,465.65,886.12Z"/><polygon class="cls-12" points="735.62 326.97 756.6 378.15 844.36 231.52 735.62 326.97"/><path class="cls-13" d="M850,228.92l-2.89.2h0l-1.72,1.51-1,.89L756.6,378.15l50.62,123.48,1.53-5.78c1-30-.08-54.87-.24-72.29-.3-32.53-1.54-50.77,3.69-77.41a237.4,237.4,0,0,1,12.28-41.79,146.6,146.6,0,0,1,34.41-51.61c9.62-9.28,19.6-18,28.3-24.23C881.28,227.68,870.94,227.51,850,228.92Z"/><polygon class="cls-1" points="718.45 551.8 719.14 551.42 718.7 550.56 718.45 551.8"/><path class="cls-14" d="M719.14,551.42l.28.56,1.1,87.42c1.64-1.21,3.3-2.47,5-3.86a191.52,191.52,0,0,0,35-36.25,420.45,420.45,0,0,0,41.91-79.7l.07-.26.14-.52.2-.77.19-.73.55-2.07,0-.11,1.05-4,1.95-7.41.36-1.35Z"/><polygon class="cls-15" points="754.31 372.57 735.62 326.97 734.78 327.71 678.83 465.14 752.6 381.13 756.16 377.07 754.31 372.57"/><polygon class="cls-16" points="756.16 377.07 752.6 381.13 678.83 465.14 678.25 466.57 677.44 468.04 718.28 549.71 756.39 377.63 756.16 377.07"/><polygon class="cls-17" points="756.39 377.63 718.28 549.71 718.7 550.56 719.14 551.42 807.03 502.37 807.22 501.63 756.39 377.63"/><path class="cls-18" d="M548.25,702.62q-8.46,13.21-17,27.26l-1.23,2q-14.46,24-28.77,50.46c-11.3,21-18.68,43.77-25.06,66.11-1.24,4.35-2.44,8.66-3.63,13,2.47-5.89,5.26-12,8.41-18.24,19.71-39.05,43.43-63.85,59-79.87,25-25.72,47.65-41.8,65.13-54.07,28.5-20,57.13-35.86,70-43,20-11.09,30.68-16.2,43.61-25.58L551.44,696.82Z"/><path class="cls-19" d="M719.14,551.42h0l-167.4,145.3,167-56,1.73-1.29L719.42,552Z"/><polygon class="cls-20" points="719.14 551.42 677.44 468.04 551.44 696.82 551.74 696.72 719.14 551.42 719.14 551.42"/><polygon class="cls-3" points="734.94 327.38 734.85 327.38 734.86 327.41 734.94 327.38"/><polygon class="cls-21" points="708.86 258.33 707.74 258.9 668.42 327.71 666.91 329.21 734.85 327.38 708.86 258.33"/><polygon class="cls-22" points="734.85 327.38 666.91 329.21 614.36 381.77 734.86 327.41 734.85 327.38"/><polygon class="cls-3" points="735.17 327.37 735.39 327.17 734.94 327.38 735.17 327.37"/><path class="cls-23" d="M847.08,229.12c-11.57.82-26.16,2.1-44.72,4-22.61,2.28-41.56,4.47-55.3,6.14l-38.2,19.1,26,69.05h.09l.45-.21,110-96.54Z"/><polygon class="cls-3" points="734.86 327.41 734.92 327.58 735.17 327.37 734.94 327.38 734.86 327.41"/><polygon class="cls-24" points="614.36 381.77 611.37 384.76 678.62 465.67 734.78 327.71 734.92 327.58 734.86 327.41 614.36 381.77"/><path class="cls-25" d="M527.67,634.21,511.1,573.74l-1.69,1a755.4,755.4,0,0,0-31.47,103.19q0,.22-.12.54l48.66-42.94Z"/><path class="cls-26" d="M674.36,469l-146.7,165.2L511.1,573.73q4.95-3,9.93-6,9.94-6,20-12.21l8.88-5.49q14.34-8.91,28.83-18.09,6.43-4.08,12.89-8.21,5.35-3.44,10.66-6.86c3.54-2.27,7.06-4.56,10.57-6.84l8.51-5.57,8.22-5.4q8.55-5.64,17-11.26,9-6,17.78-12Z"/><path class="cls-27" d="M674.38,469,527.67,634.21,547,704.64l1.29-2,130-236,.11-.27Q676.38,467.67,674.38,469Z"/><path class="cls-1" d="M465.65,886.12v0C466.26,884.06,466.31,883.87,465.65,886.12Z"/><path class="cls-1" d="M468.38,876.61c.06-.2.12-.4.17-.6l0,0C468.5,876.17,468.44,876.39,468.38,876.61Z"/><path class="cls-28" d="M525.52,636.4l-47.7,42.08c-2,8.9-15.95,73.85-15.83,148.66,8-33,16.49-68.82,28.86-103.12C502,693.05,513.68,663.83,525.52,636.4Z"/><path class="cls-29" d="M527.67,634.21l-1.19,1.33-1,.86C513.68,663.83,502,693.05,490.85,724,478.48,758.32,470,794.16,462,827.14a509.61,509.61,0,0,0,3.43,59.77c.09-.3.17-.57.24-.82v0c.66-2.25.61-2.06,0,0A62.74,62.74,0,0,0,468.55,876c-.05.2-.11.4-.17.6.06-.22.12-.44.19-.65l0,0q2-7.17,4.05-14.55h0c1.19-4.3,2.39-8.62,3.63-13,6.38-22.34,13.76-45.16,25.06-66.11q14.25-26.45,28.77-50.46l1.23-2q7.85-13,15.67-25.24Z"/><path class="cls-30" d="M677.53,464.36l-66.16-79.6-5-4.82-.5-.6c-3-3.57-18.29-22-21.62-26.44-12.29-13.51-110.6-66.35-110.6-66.35L347.19,212.88,369,234.36c51,42.71,105.55,86.09,163.67,129.6C581.49,400.56,630.34,433.09,677.53,464.36Z"/><path class="cls-31" d="M678.41,465.42l-118.75-52.3-34.41-24.58L369,234.37c51,42.7,105.54,86.08,163.66,129.59,48.87,36.6,97.72,69.13,144.91,100.4Z"/><path class="cls-32" d="M678.62,465.67l-.26.63q-2,1.36-4,2.72l-10,6.81q-8.83,6-17.78,12-8.43,5.61-17,11.26l-8.22,5.4L612.84,510c-3.51,2.28-7,4.57-10.57,6.84s-7.09,4.57-10.66,6.86q-6.47,4.13-12.89,8.21l-.16-.16L559.91,414.63l-.25-1.51,118.75,52.3Z"/><path class="cls-3" d="M664.34,475.83q-8.83,6-17.78,12Q655.52,481.79,664.34,475.83Z"/><path class="cls-33" d="M575.83,529,457.67,410.66,354.07,226.11l.37.22-4.23-7.75-3.14-5.77.12.08L369,234.37,525.25,388.54l1,2.69Z"/><polygon class="cls-34" points="578.56 531.77 575.83 529.03 526.22 391.23 525.25 388.54 559.66 413.12 559.91 414.63 578.56 531.77"/><path class="cls-35" d="M136.32,153.21c101.32,69.51,185.12,95.55,252,133.85l-34.22-60.95c-8.45-5.21-175-107.65-253.39-147.86L13.43,29.1c.39,1.11.79,2.2,1.19,3.29C44.12,70.51,81.87,115.86,136.32,153.21Z"/><path class="cls-36" d="M388.29,287.06c-66.85-38.3-150.65-64.34-252-133.85-54.45-37.35-92.2-82.7-121.7-120.82,19.57,53.9,43.85,92.74,61.48,117.14,34.59,47.89,62.88,66.93,73.73,73.73,4.93,3.08,106.55,54,114.29,57.76l123.1,60.34,41.36,17.49Z"/><path class="cls-37" d="M199.43,311.23c94,36.42,178.12,55.35,242.58,71.53l-13.43-23.91-41.36-17.49c.75.37-207.89-80-207.89-80l-106.92-43,19.47,28.6a731.39,731.39,0,0,0,88.58,55.63A176.18,176.18,0,0,0,199.43,311.23Z"/><path class="cls-38" d="M457.67,410.66,442,382.76c-64.46-16.18-148.58-35.11-242.58-71.53a176.18,176.18,0,0,1-19-8.66,731.39,731.39,0,0,1-88.58-55.63l40.75,59.88a150.43,150.43,0,0,0,84.79,55.3L309.59,383l103.77,23.2,30,4.61,14.36-.1Z"/><path class="cls-39" d="M484.81,437.85l-27.09-27.13-14.36.1-30-4.61.68.15L156,380.55l2.21,1.52c33.12,18.37,78.7,40.61,149.55,53.17C391.05,443,470.34,438.74,484.81,437.85Z"/><path class="cls-40" d="M484.81,437.85c-14.47.89-93.76,5.16-177.07-2.61-70.85-12.56-116.43-34.8-149.55-53.17l96.1,66.07a133.64,133.64,0,0,0,33.18,17.21,136.33,136.33,0,0,0,63.9,6.14l98-7.35,45-16.72Z"/><path class="cls-41" d="M402.37,515.12c55.39-15.6,87.72-37.32,107.7-52l-15.71-15.73-45,16.72.33,0-121.4,44.14C348.6,513.59,381.21,521.07,402.37,515.12Z"/><path class="cls-42" d="M527.25,480.36l-17.18-17.21c-20,14.65-52.31,36.37-107.7,52-21.16,6-53.77-1.53-74.09-6.86l-.26.1,56.53,28.26a48.53,48.53,0,0,0,43-2.46q33.18-17.19,66.36-34.41l0,.07Z"/><polygon class="cls-43" points="527.25 480.36 493.89 499.82 476.06 545.97 543.61 496.75 527.25 480.36"/><path class="cls-44" d="M578.56,531.77,575.83,529l-28.56-28.62-37.56,74.16,1.39-.84q4.95-3,9.93-6,9.94-6,20-12.21l8.88-5.49q14.34-8.91,28.83-18.09Z"/><path class="cls-45" d="M543.61,496.75,476.06,546l-3,7.85,36.86,19.67-.48,1.26.3-.18,37.56-74.16Z"/><path class="cls-46" d="M562.83,809.84c-2.52,3.75-5,7.72-7.47,11.88-2.54,4.33-4.9,8.77-7.11,13.27,5.66,35.18,12.51,75.61,23.7,115.15,10,35.33,23.25,69.45,35.94,100.05.3.24.62.48.93.71a219.79,219.79,0,0,1,27-60.15c-11.11-27.87-24.49-56.87-35.6-86.08C587.68,871.7,575.77,839.43,562.83,809.84Z"/><path class="cls-47" d="M548.25,835c-16.06,32.74-23.78,69.4-27.36,100.88L540,1009.12c9.65,4.43,20,9.7,30.72,16a347.6,347.6,0,0,1,37.17,25.09C595.2,1019.59,582,985.47,572,950.14,560.76,910.6,553.91,870.17,548.25,835Z"/><path class="cls-48" d="M688.86,947.71a236.53,236.53,0,0,1,66.08,20.8c-21-29.55-45.81-60.74-73-92.72a1280.47,1280.47,0,0,0-93.14-98.48c-2.58,2.72-6.43,6.94-10.92,12.39q28.9,38.76,58,79.33C654.34,894.85,671.75,921.59,688.86,947.71Z"/><path class="cls-49" d="M681.93,875.79c27.2,32,52,63.17,73,92.72l.11.06c-2.42-15-5.61-31.08-9.83-47.93-2.69-10.75-5.59-21-8.6-30.72L601.87,765.08c-3.17,2.67-6.37,5.54-9.64,8.71,0,0-1.28,1.24-3.44,3.52A1280.47,1280.47,0,0,1,681.93,875.79Z"/><path class="cls-50" d="M635.85,869q-29.05-40.57-58-79.33c-4.58,5.55-9.81,12.36-15,20.14,12.94,29.59,24.85,61.86,37.38,94.83,11.11,29.21,24.49,58.21,35.6,86.08l0-.06a252.29,252.29,0,0,1,56.53,49.15,230.23,230.23,0,0,0-3.69-92.16l.17,0C671.75,921.59,654.34,894.85,635.85,869Z"/><circle class="cls-51" cx="774.71" cy="232.47" r="22.12"/><path class="cls-52" d="M786.18,218.87c0,2.38-2.76,4.46-6.93,4.62-5.31.21-10.59-2.66-10.28-6.34s5.65-5.14,10.62-4C783.54,214.08,786.18,216.55,786.18,218.87Z"/><path class="cls-53" d="M699.75,205.44c-5.44.39-10.57,1-15.37,1.86L616.8,262.58l45.47-17.2s0,.09-.07.14l39-18.62a136,136,0,0,1,19.47-14.09,124.45,124.45,0,0,1,11.69-6.4A161.14,161.14,0,0,0,699.75,205.44Z"/><path class="cls-54" d="M777.68,194.06c-18.58-3.05-28.24-2.67-42.29-4.6-4.58-.62-10.19-1.58-16.65-3.09l.06,0-87.25,11.06,52.84,9.83v0c4.8-.82,9.93-1.47,15.37-1.86a161.14,161.14,0,0,1,32.58,1A131.47,131.47,0,0,1,763,196.22,75.24,75.24,0,0,1,777.68,194.06Z"/><path class="cls-55" d="M675.18,666.27c-12.92,7.15-41.55,23-70,43-15.55,10.92-35.22,24.87-57,45.92-35.75,44-77.52,127.66-31.6,251.25l1.81,1.93c-1.07-3.38-2.07-6.42-3-9.09-5.73-17.14-7.68-20.32-9.83-30.72-3.34-16.17-2.87-29-2.46-40.55a226.91,226.91,0,0,1,4.92-39.33,265.67,265.67,0,0,1,20.89-49.15s21.68-39.37,62.67-67.59a43.34,43.34,0,0,1,6.41-3.76q10.49-13.37,21.86-27a1075.35,1075.35,0,0,1,88.38-93.48C699.19,653.38,689.62,658.27,675.18,666.27Z"/><path class="cls-56" d="M548.17,755.2c-2.69,2.61-5.42,5.31-8.17,8.15-15.56,16-39.28,40.82-59,79.87-3.15,6.25-5.94,12.35-8.41,18.24q-2,7.37-4.05,14.55a62.82,62.82,0,0,1-2.9,10.11c-.08.26-.15.53-.23.79q.66,5.51,1.46,11c3.07,20.82,8.25,44.48,22.12,70a192.61,192.61,0,0,0,27.57,38.5C470.65,882.86,512.42,799.21,548.17,755.2Z"/></svg>